<?xml version="1.0"?>
<svg xmlns="http://www.w3.org/2000/svg" xmlns:xlink="http://www.w3.org/1999/xlink" version="1.1" x="0px" y="0px" viewBox="0 0 100 100" style="enable-background:new 0 0 100 100;" xml:space="preserve">
  <path d="M64.9,15.3c-0.5-0.3-0.9-0.3-1.1-0.5c-1.1-1.2-2.2-2.4-3.9-0.8c-0.2,0.2-0.6,0.1-0.9,0c-0.7-0.2-1.2-0.1-1.8,0.2  c-1.3,0.6-1.9,0.2-2.1-1.2c-0.1-0.6-0.1-1.1-0.9-1.1c-0.9,0-1.1-0.7-1-1.5c0.1-0.4,0.2-0.9,0.4-1.3c0.7-1.1,1.2-2.1,1.2-3.5  c0-0.9,1-1.2,1.8-1c0.9,0.3,1.6,0.1,2.1-0.6c0.4-0.6,1-0.8,1.7-0.5C61,3.9,61.2,4.4,61.1,5c-0.1,1,0.2,1.6,1.2,1.8  c0.6,0.1,0.9,0.7,1.5,0.8c0-0.2,0.1-0.3,0.1-0.4c-1.4-1.6-1.3-2.2,0.7-3c0.6-0.3,0.9-0.6,1-1.2c0.3-1.6,1.1-2.2,2.6-1.9  c0.9,0.2,1.7,0.3,2.6,0.3c1.6,0,2.3,0.9,1.9,2.4c-0.3,1-0.2,2-0.2,3c-0.1,1.1-0.6,1.8-1.6,2.2c-1.1,0.5-2.2,0.9-3.4,1.4  c-0.4,0.2-0.8,0.4-1,0.8c-0.2,0.5-0.5,1.2,0.1,1.6c0.6,0.5,0.9-0.2,1.2-0.5c1.1-1,2.4-1.8,3.8-2.2c1-0.3,1.5-0.8,1.5-2.1  c0-2.3,1.5-3.4,3.8-3.1c0.5,0.1,1,0,1.5-0.1c1.7,0,2.4,0.7,2.2,2.4c-0.1,0.5,0,0.7,0.4,0.9c1.1,0.6,1,1.5,0.5,2.5  c-0.3,0.5-0.4,1.1-0.9,1.5c-0.7,0.5-1.2,1.1-1.4,2c-0.1,0.5-0.5,0.9-0.9,1.3c-0.7,0.8-1.3,0.9-2.2,0.2c-0.5-0.4-0.9-0.5-1.5-0.3  c-2,0.6-3,0-3.2-2.2c0-0.4,0-0.8,0.1-1.1c-1.7,0.1-2.6,0.7-4.1,3.2c0.9,0.1,1.8,0.2,2.4,0.8c0.6,0.6,0.8,1,0.2,1.8  c-1.4,1.9-1.2,4.1-1.2,6.2c0,0.8,0.7,0.9,1.4,1c2.1,0.2,4.2,0.5,6.3,0.7c2.3,0.2,4.4,0.7,6.6,1.3c2.3,0.6,3.9,1.8,4.3,4.5  c0.6,3.5,1.7,7,2.7,10.4c0.7,2.5,1.2,5.1,1.9,7.6c0.4,1.7-0.8,3.1-2.1,4.1c-2.4,2-4.8,4.1-7.5,5.6c-0.8,0.5-0.9,1.3-0.9,2.2  c0,4.9-0.6,9.7-0.7,14.6c-0.1,2.3,0,4.6-0.1,6.9c-0.1,1.6-0.6,2.1-2.1,1.9c-0.8-0.1-1.4-0.4-1.5-1.2c-0.1-0.7-0.4-1.4-0.4-2.1  c-0.3-5.3-1.4-10.4-1.5-15.7c0-1-0.3-2-0.4-3.1c-0.1-0.9-0.5-1-1.3-0.8c-1.6,0.4-3.3,0.5-5,0.1c-0.8-0.2-1.5-0.1-2.2,0.5  c-2.1,1.7-4.6,2.1-7.2,1.8c-1.6-0.2-1.7-0.2-1.6,1.4c0.1,3.5,0.2,6.9,0.3,10.4c0.1,5,0.3,10,0.1,15c-0.1,2-0.4,4-0.2,6  c0.1,0.7-0.2,1.2-1.1,1.3c-0.4,0-0.9,0.2-1.3,0.3c-1.3,0.1-1.7-0.2-2-1.5c-0.2-0.9-0.3-1.8-0.3-2.7c0-4.8-0.5-9.6-1.1-14.4  c-0.5-4.5-1.3-9-1.6-13.5c0-0.5,0.3-1.3-0.5-1.4C49,65.2,48,65.9,48,66.8c0,2.3-0.4,4.6-0.3,6.9c0.1,1.2-0.1,2.4,0.2,3.7  c0.2,1.2-0.7,2.4-1.8,2.6c-1,0.1-1.8-0.5-2.1-1.8c-0.6-2.1-0.7-4.2-0.9-6.3c-0.3-2.4-0.8-4.7-1.3-7c-0.2-0.9-1.1-1.6-2.2-1.6  c-1.3,0-2.7,0.2-4,0.3c-1.9,0.1-3.7,0.1-5.4-0.9c-0.4-0.2-0.8-0.3-1.3-0.5c-1.7-0.6-1.7-0.6-1.8,1.2c-0.4,4.1-0.1,8.2-0.2,12.3  c-0.1,3.8,0.1,7.7,0,11.5c0,0.4,0,0.8-0.1,1.2c-0.2,1.4-2,2.4-3.3,2c-0.6-0.2-0.8-0.8-0.9-1.4c-0.2-2.7-0.8-5.3-0.8-8  c0-3.4-0.7-6.6-1-10c-0.3-2.9-0.6-5.9-0.8-8.8c-0.1-1.6-0.4-2-2-2.3c-1.3-0.3-2.6-0.1-3.8-0.2c-1.7,0-3.3-0.6-4.6-1.7  c-0.7-0.6-1.1-1.2-0.9-2.2c1-4.4,1.3-8.9,2.6-13.2c0.6-1.9,0.9-4,1.2-6c0.5-2.7,1.7-4.8,4.3-5.9c2.8-1.2,5.8-2.1,8.7-3  c3.3-1,6.7-1.3,10-1.8c2-0.3,4,0,6-0.3c5.5-1,11.1-0.9,16.7-0.8c2.7,0,2.7,0,2.9-2.6c0.1-1.2,0.1-2.3,0.2-3.5  c0.1-1.6,0.9-2.7,2.6-2.9C64.1,15.7,64.3,15.5,64.9,15.3z M14.8,58.2c0.9,0.6,1.8,0.3,2.7,0.2c0.3,0,0.3-0.3,0.3-0.6  c0.8,0.6,1.6-0.2,2.4,0.2c-0.9,1-0.8,1.3,0.4,1.8c1,0.4,2.1,0.6,3.2,0.4c2.3-0.4,4.4,0.1,6.3,1.1c2.9,1.5,5.8,1,8.8,0.9  c0.3,0,0.5-0.1,0.4-0.4c-0.2-1,0.4-0.9,1-0.9c1.4-0.1,2.6,0.8,4,0.5c0.4-0.1,0.8,0.1,0.8,0.6c0,0.4-0.4,0.4-0.8,0.4  c-0.9,0.1-1.8-0.1-2.8,0.2c0.5,1.1,1.6,0.5,2.3,1c2.5,1.5,4.9,0.9,7.2-0.5c1.8-1.2,3.6-1.4,5.6-0.5c2.6,1.1,5.4,1.3,7.8-0.2  c1.8-1.2,3.6-1.5,5.6-1.3c1.7,0.2,3.2-0.3,4.8-1c1.6-0.7,2.8-1.9,4.6-2.3c0.9-0.2,1.7,0.4,2.6,0c1.7-0.8,3.1-1.8,4.5-3.3  c-1.9,0.1-2.8,2.3-5.1,1.8c1-0.6,1.6-1,2.1-1.6c0.5-0.6,1.6-0.4,2-1.3c-1.2-0.4-2.1,0.9-3.2,0.6c0.1-0.4,0.5-0.5,0.7-0.6  c1.4-0.7,2.9-1.4,4.3-2.1c1-0.5,1.8-1.2,2.4-2.1c0.6-0.8-0.4-1.6-0.4-2.4c0-0.2-0.1-0.5-0.2-0.7c-0.8,0.3-0.8,0.3-1.1,1.3  c0,0.2-0.2,0.4-0.3,0.4c-1.9,0.8-3.7,1.6-5.5,2.6c-0.2,0.1-0.4,0.1-0.5-0.1C82,50.2,81.9,50,82,50c0.9-0.6,0.8-2,2-2.4  c1.2-0.4,2.4-0.9,3.4-1.8c-0.9-0.3-1.4,0.3-2.1,0.5c-1,0.2-1.2-0.1-0.9-1.2c-0.3-0.1-0.5,0-0.7,0.1c-0.4,0.1-0.9,0.3-1.1-0.3  c-0.2-0.5,0.3-0.6,0.6-0.9c1.6-1.2,3.5-1.7,5.4-2.6c-0.4-1.7-0.8-3.4-1.2-5c-0.3-1.2-0.6-1.3-1.9-1c-0.2,0-0.4,0-0.6,0  c0-0.8,0.6-1,1.1-1.3c0.3-0.2,0.4-0.5,0.2-0.8c-0.3-0.4-0.6-0.2-0.8,0.1c-0.9,1.4-2.5,1.9-3.7,3l0.1-0.1c-0.6-0.1-1.1,0.3-1.6,0.6  c-5.1,3.1-10.8,4.8-16.7,5.5c-4.5,0.6-9.1,0.4-13.6,0.8c-5.5,0.4-11-0.4-16.5-0.8c-3.3-0.3-6.4-1.4-9.6-2.1  c-2.5-0.5-4.6-1.5-6.7-2.9c-0.8-0.5-1.6-1-2.4-1.6c-0.2,0.2-0.4,0.3-0.4,0.5c-1.9,6.4-3.4,12.9-4.3,19.5c-0.1,0.7,0.2,1,0.7,1.4  C11.9,58.2,13.3,58.4,14.8,58.2z M84.6,30.3c-0.2-0.5-0.6-0.7-1-0.9c-4.2-2.3-8.9-2.3-13.4-3c-0.6-0.1-1,0.2-0.7,0.9  c0.5,1.2,0.2,2.3-0.1,3.4c-0.3,1-0.7,1.8-1.2,2.6c-0.4,0.7-0.9,1.4-0.6,2.3c0.3,0.7-0.4,1-1,1.2c-1.5,0.5-3,0.6-4.5,0.7  c-1.3,0.1-1.7-0.3-1.9-1.7c-0.1-0.5-0.1-1-0.5-1.4c-1.3-1.4-1.3-3-0.8-4.7c0.3-1.2,0.8-2.3,1.3-3.5c-5-0.3-9.9-0.3-14.8,0.2  c-2,0.2-4,0.7-6.1,0.7c-3.3,0-6.5,0.5-9.7,1.1c-3.1,0.6-6.1,1.5-9,2.5c-1.6,0.6-3.3,1.1-4.5,2.5c-0.6,0.7-0.6,1,0.2,1.5  c4,2.7,8.5,4.4,13.2,5.5c2.3,0.5,4.7,0.5,7.1,0.7c4.3,0.3,8.6,1,12.9,0.7c2.5-0.2,5-0.2,7.4-0.3c1.4-0.1,2.8,0.1,4.2-0.2  c3-0.6,6-1.3,9-1.9c3.4-0.8,6.5-1.9,9.5-3.6c0.6-0.3,1.1-0.8,1.6-1.3C82.4,33,83.1,31.3,84.6,30.3z M68,19.3c-1.5,0-2.8,0-4.2,0  c-1.3,0-1.5,0.1-1.4,1.4c0.1,1.8-0.2,3.4-0.9,5.1c-0.5,1.4-1.1,2.7-1.5,4.2c-0.3,1.1-0.5,2.4,0.6,3.2c1.3,0.9,2.7,1.7,4.5,1  c2.1-0.9,3.6-3.7,3.1-6c-0.5-2.4-1-4.8-0.4-7.2C68.1,20.4,68.2,19.9,68,19.3z M64.4,13.3c0.6-0.6,0.7-1.3,0.9-1.9  c0.1-0.4,0.2-0.8-0.3-1c-0.5-0.2-1-0.5-1.6-0.6c-0.6-0.1-1.1,0.3-1.5,0.7c-0.3,0.5,0.2,0.8,0.5,1.1C63.1,12.2,63.7,12.7,64.4,13.3z   M88.5,43.9c0,0.6-0.9,0.5-0.9,1.2c0.6,0,1.2,0.3,1.8-0.1c-0.1-0.3-0.2-0.6-0.3-0.8c-0.6-2-0.6-2-2.5-1.1c-0.2,0.1-0.5,0.2-0.5,0.5  C87,43.9,87.9,43.1,88.5,43.9z M73.3,14.5c0.8,0,1.7-0.8,1.6-1.4c0-0.5-0.4-0.8-0.9-0.8c-0.7-0.1-1.4,0.6-1.3,1.2  C72.8,13.9,72.8,14.5,73.3,14.5z M68.1,17.3c-1.6-0.4-3.1-0.5-4.9,0.1C65.1,18.3,66.6,18.1,68.1,17.3z M52.9,75.3  c0.7-2.3-0.5-4.4-0.4-6.6C52.1,70.9,52.6,73.1,52.9,75.3z M25.3,77.5c-0.5,0.8-1.1,1.5-1.1,1.5c1.2,1,0.5,2.4,0.8,3.7  C26,80.9,25,79.4,25.3,77.5z M75.8,7.4c0-0.3,0.1-0.7-0.2-0.9c-0.4-0.2-0.7,0.2-0.9,0.5c0,0.1-0.1,0.1-0.1,0.2  c-0.3,0.5-0.4,1.1-0.1,1.6C74.6,9,74.8,9.1,75,9c0.6-0.2,0.5-0.8,0.7-1.3C75.8,7.7,75.8,7.5,75.8,7.4z M54,66.5  c-0.7,1.7,0,3.3,0,4.9C54,69.8,54.8,68.2,54,66.5z M79.1,7.2c-0.1-0.4-0.3-0.7-0.8-0.6c-0.7,0.2-0.9,0.8-1,1.4  c-0.1,0.4,0.3,0.5,0.6,0.5C78.7,8.4,79,7.9,79.1,7.2z M79.4,11.4c0.5-0.2,0.9-0.7,0.9-1.3c0-0.3-0.3-0.4-0.6-0.3  c-0.6,0.1-1,0.6-0.9,1.2C78.8,11.2,79.1,11.4,79.4,11.4z M77.9,13.3c-0.1-0.4-0.2-0.7-0.6-0.6c-0.7,0.1-0.8,0.8-0.8,1.3  c0,0.3,0.2,0.6,0.6,0.6C77.8,14.4,77.7,13.8,77.9,13.3z M23.9,61.6c0.5,0.5,1.1,0.8,1.3,1.7C25.7,61.4,25.7,61.4,23.9,61.6z   M87.4,53.6c1.4-0.8,1.4-0.8,1.6-1.9C88,52.2,88,52.2,87.4,53.6z M25,87.1c0.5-0.8,0.5-1.9-0.2-3.1C24.9,85,24.9,86,25,87.1z   M55.5,70.8c-0.2,0.5-0.2,1-0.1,1.5c0.1,0.3,0.3,0.4,0.6,0.3c0.4-0.1,0.6-0.4,0.2-0.7C55.8,71.6,55.8,71.2,55.5,70.8z M56.3,9.5  c-0.5-0.7-1-0.5-1.4-0.2c-0.3,0.2-0.5,0.5-0.4,0.8c0.2,0.4,0.5,0.2,0.8,0.1C55.6,9.9,55.9,9.7,56.3,9.5z M59.6,12.5  c0.3,0,0.6-0.2,0.5-0.4c-0.1-0.5-0.4-0.8-0.9-0.9c-0.3-0.1-0.4,0.2-0.4,0.5C58.8,12.2,59.1,12.4,59.6,12.5z M76.3,11.2  c0.5,0,0.9-0.2,1.1-0.6c0.1-0.2-0.1-0.5-0.4-0.5c-0.5,0-0.9,0.2-1,0.6C75.8,10.9,75.9,11.2,76.3,11.2z M59,7  c0.3-0.1,0.5-0.3,0.6-0.7c0-0.3,0.2-0.7-0.2-0.7c-0.3,0-0.4,0.2-0.4,0.5C58.9,6.4,58.8,6.7,59,7z M71,6.3c-0.7,0.5-1.2,0.8-1.2,1.5  C69.8,7.9,70,8,70.1,8C70.8,7.8,71,7.3,71,6.3z M22.4,64.1c0.7-0.6,0.4-1.3,0.3-1.9C22.6,62.8,22.1,63.3,22.4,64.1z M23.7,69.6  c0.4-0.6,0-1.1-0.2-1.8C23.3,68.6,23.3,69.1,23.7,69.6z M53.3,63.8c0.2,0.6,0.1,1.2,0.7,1.5c0,0,0.1,0,0.2-0.1  c0.5-0.7-0.6-0.8-0.5-1.4C53.6,63.8,53.6,63.8,53.3,63.8z M66.1,5.5c-0.7-0.3-1.2-0.3-1.6,0.4C65.2,6.3,65.7,6.2,66.1,5.5z   M22.3,66.2c-0.2-0.1-0.5-0.3-0.7-0.4c0,0.2-0.1,0.4-0.1,0.5c0,0.3,0.2,0.4,0.5,0.3C22.2,66.6,22.3,66.5,22.3,66.2z M55.2,83  c0.1-0.7,0.2-1.3-0.1-1.8C55.1,81.8,54.9,82.3,55.2,83z M67.3,2.7c-0.3,0.1-0.6,0.3-0.6,0.6c0,0.3,0.2,0.5,0.5,0.4  c0.3-0.1,0.5-0.4,0.5-0.7C67.6,2.8,67.5,2.7,67.3,2.7z M54.9,92c0-0.3-0.1-0.5-0.4-0.6c-0.4-0.1-0.3,0.3-0.3,0.5  c0,0.2,0,0.6,0.4,0.5C54.8,92.4,54.9,92.2,54.9,92z M23.5,64.9c0,0.6,0,0.9,0,1.4C23.9,65.8,23.9,65.5,23.5,64.9z M61.9,8.7  c-0.1-0.3-0.3-0.3-0.6-0.3c-0.3,0-0.5,0.2-0.4,0.5c0,0.1,0.3,0.3,0.5,0.3C61.6,9.2,61.9,9.1,61.9,8.7z M44,66.7  c0.3,0,0.5-0.2,0.5-0.4c0.1-0.3,0.2-0.6-0.2-0.7C44.1,65.9,43.9,66.3,44,66.7z M23.6,82.7c0-0.1-0.1-0.2-0.1-0.3  c-0.1,0.2-0.1,0.3-0.2,0.5c0,0.1-0.1,0.4,0.2,0.3C23.6,83.1,23.6,82.8,23.6,82.7z"/>
  <path d="M13.2,49.6c2.6,0.5,4.9-0.1,7.1,0.5c-0.5-1-1.4-0.7-2.1-0.7c-0.9-0.1-1.5-0.1-1.5-1.2c0-0.5-0.3-0.6-0.7-0.7  c-0.9,0-0.8-0.7-1-1.3c3-0.2,5.3,1.2,7.4,3c-0.8,0.3-0.8,1.5-2,1.6c0.8,0.7,1.9,0.2,2.4,1.1c-0.8,0.4-1.7-0.2-2.4,0.3  c0,0.5,0.7,0.2,0.8,0.8c-0.2,0.3-0.9,0-1,0.4c-0.2,0.5,0.1,0.8,0.5,1.2c-0.6,0.1-1.1,0.2-1.6,0.3c-1.4,0.3-1.5,0.3-1.9-1.1  c-0.1-0.3,0.2-0.6-0.4-0.3c-1.4,0.6-2.5-0.3-3.7-0.8c1-0.7,1.7,0.5,2.6,0.1c0.2-0.3-1.3-1.1,0.2-1.2c0.5,0,0.2-0.2,0-0.3  C15,50.9,14.2,50.5,13.2,49.6z M19.9,53.4c-0.1-0.4-0.3-0.6-0.7-0.6c-0.3,0-0.8-0.1-0.9,0.5c0,0.5,0.3,0.6,0.7,0.7  C19.4,54,19.8,54,19.9,53.4z M17.8,51.6c0.7,0.5,1.2,0.7,1.8-0.1C19,51.4,18.5,51.3,17.8,51.6z"/>
  <path d="M63.8,57.4c0.9,0.1,1.3,0.2,1.8,0.2c-2,0.8-2,0.8-3.3-1.1c0.1-0.5,0.5-0.5,0.8-0.7c0.4-0.2,1.3-0.2,0.4-1.1  c-0.2-0.2,0.1-0.6,0.4-0.7c0.7-0.4,1.4-0.7,2.2-0.4c0.5,0.2,1.1,0.3,1.7,0.3c0.6-0.1,0.8,0.3,0.4,0.8c0,0-0.1,0.1-0.2,0.1  C68,55.1,64.7,57.1,63.8,57.4z"/>
  <path d="M17.9,57.9c-1.1-0.3-2,0.7-3.1,0.4c0.3-0.4,0.3-0.9-0.1-1c-1.3-0.3-1.6-1.6-2.4-2.3c0.4-0.5,0.8-0.3,1.1-0.1  c0.7,0.4,1.4,0.7,2.1,0.2c0.3-0.2,0.6-0.1,0.9,0.1c0.6,0.3-0.2,0.4-0.2,0.6c0,0.2,0.3,0.2,0.4,0.2c1.5-0.7,2.6,0.5,3.9,0.8  C19.7,57.3,18.5,57,17.9,57.9z M14.9,56.5c0.4,0.4,0.7,0.8,1.3,0.5C16.1,56.4,15.7,56.3,14.9,56.5z"/>
  <path d="M42.8,52.1c-1.2,1.2-1.3,1.5-0.1,2.7c0.6,0.6,0.5,0.9-0.3,1.2c-0.5,0.2-1.1,0.4-1.7,0.2c-0.3-0.4,0.2-0.6,0.2-0.9  c-0.9-0.3-2.1,0.2-3-0.5c0.9-1.3,2.4-0.3,3.5-1.3c-0.9-0.5-1.7-0.3-2.4-0.3c-0.4,0-0.8,0.2-1.1,0c-0.1-0.1-0.2-0.2-0.2-0.3  c0-0.2,0-0.4,0.3-0.4c0.1,0,0.3,0,0.4,0C39.8,52.6,41.3,52.7,42.8,52.1z"/>
  <path d="M16.9,41.7c-0.4-0.2-0.7-0.3-0.8-0.6c-0.1-0.6,0-1.1,0.5-1.3c0.5-0.3,1.2-0.5,1.8-0.6c0.8-0.1,1.1,0.4,1.3,1.1  c0.2,0.5,0.8,0.3,1.1,0.7c0.1,0.2,0.2,0.3,0.1,0.5c-0.1,0.2-0.3,0.3-0.5,0.2c-0.3-0.1-0.6-0.2-0.9-0.2  C18.6,41.4,17.7,40.9,16.9,41.7z"/>
  <path d="M89.5,48.8c-1.4,0.4-1.9,2.1-3.4,2.3c-1.3,0.2-2.2,1.4-3.7,1.3C84.5,50.4,86.6,48.8,89.5,48.8z"/>
  <path d="M42.1,48.5c-0.8-0.4-1.5,0-1.9-0.9c-0.3-0.6-1-0.4-1.5-0.3c-0.4,0.1-0.8-0.1-0.9-0.5c-0.1-0.6,0.3-0.6,0.7-0.7  c1-0.4,2.1,0.1,3,0.3C42.1,46.6,41.7,47.6,42.1,48.5z"/>
  <path d="M15.5,42.3c1.7,1.4,3.5,2,5.2,2.5c0.3,0.1,0.6,0.2,0.6,0.6c-0.1,0.4-0.4,0.5-0.7,0.5c-0.8,0-1.8,0.5-2.1-0.9  c0-0.2-0.6-0.5-1-0.5C16.3,44.4,16,43.6,15.5,42.3z"/>
  <path d="M62.5,46.6c1.3-1.3,3-1.7,4.8-2c0.2,0,0.5,0.1,0.6,0.4c0.1,0.3-0.1,0.4-0.3,0.6C65.9,46.3,64.2,46.5,62.5,46.6z"/>
  <path d="M85.8,37.9c0.3,0,0.6,0,0.7,0.3c0.1,0.3-0.2,0.5-0.4,0.6c-0.4,0.2-0.9,0.2-1.3,0.4c-0.5,0.3-1.3,0.2-1.5,1  c-0.1,0.5-0.7,0.5-1.1,0.7c-0.3,0.2-0.8,0.2-1-0.3c-0.2-0.4,0.2-0.6,0.4-0.7C83,38.9,84.4,38.2,85.8,37.9z"/>
  <path d="M81.6,36.3c0.7,0,1.5,0,2.3,0c-0.2,0.4-0.6,0.5-0.6,0.9c0.9,0.2,1.6-0.7,2.7-0.2c-1.6,1.1-3.1,1.2-4.7,0.9  C80.8,37,81.9,36.8,81.6,36.3C81.6,36.2,81.6,36.3,81.6,36.3z"/>
  <path d="M81.6,42.9c0.2-1.1,1-1.2,1.5-1.5c1-0.7,2.3-0.9,3.1-1.9c0.2-0.3,0.6-0.3,0.9-0.2c0.3,0.1,0.6,0.5,0.2,0.7  C85.4,41,83.8,42.2,81.6,42.9z"/>
  <path d="M41.1,59c0.1-0.5,0.9-0.3,1-0.9c-0.4,0-0.9,0-1.3,0c0.8-0.6,2.2-0.8,2.9-0.5c0.3,0.1,0.4,0.3,0.4,0.6c0,0.3-0.2,0.5-0.5,0.5  C42.8,58.9,42,59.3,41.1,59L41.1,59z"/>
  <path d="M41.1,59c-0.4,0.8-1.1,1.3-1.9,1.8c-0.5,0.3-1,0.3-1.4-0.2c-0.2-0.3-0.1-0.8,0.2-0.7C39.2,60.3,40,58.9,41.1,59  C41.1,59,41.1,59,41.1,59z"/>
  <path d="M43,49.3c-1.3,1.2-1.3,1.2-4.7,1.7c0.7-0.9,1.6-0.7,2.4-0.8C41.6,50.1,42.2,49.5,43,49.3z"/>
  <path d="M65.1,59c0.8-0.8,1.7-0.8,2.4-1.2c0.2-0.1,0.5,0,0.7,0.2c0.1,0.3-0.1,0.4-0.3,0.5C67,59,66.2,59.3,65.1,59z"/>
  <path d="M20.2,42.9c-0.8-0.4-1.6,0.4-2.4,0C18.8,42.2,18.8,42.2,20.2,42.9z"/>
  <path d="M64.7,49.3c0.3-1.1,1-1.2,2.1-1.2C66.3,49.1,65.4,49,64.7,49.3z"/>
  <path d="M36.6,48.1c0.9-0.3,1.5-0.2,2.1-0.1C38.2,48.2,37.7,48.8,36.6,48.1z"/>
  <path d="M65.9,50.6c-0.3,0.5-0.7,0.4-1.2,0.2C65.1,50.5,65.4,50.3,65.9,50.6z"/>
  <path d="M38.8,56.5c-0.4,0.1-0.6,0.2-0.8,0.2c-0.2,0-0.4,0-0.5-0.3C37.9,56.2,38.3,56.1,38.8,56.5z"/>
</svg>
